inDegrees=yes
name=ik_S54_A11_T01
DataType=double
version=3
OpenSimVersion=4.3-2021-08-27-4bc7ad9
endheader
time	pelvis_tilt	pelvis_list	pelvis_rotation	pelvis_tx	pelvis_ty	pelvis_tz	hip_flexion_r	hip_adduction_r	hip_rotation_r	knee_angle_r	knee_angle_r_beta	ankle_angle_r	subtalar_angle_r	mtp_angle_r	hip_flexion_l	hip_adduction_l	hip_rotation_l	knee_angle_l	knee_angle_l_beta	ankle_angle_l	subtalar_angle_l	mtp_angle_l	lumbar_extension	lumbar_bending	lumbar_rotation	arm_flex_r	arm_add_r	arm_rot_r	elbow_flex_r	pro_sup_r	wrist_flex_r	wrist_dev_r	arm_flex_l	arm_add_l	arm_rot_l	elbow_flex_l	pro_sup_l	wrist_flex_l	wrist_dev_l
0	0	0	0	0	0.9399999999999999	0	0	0	0	0	0	0	0	0	0	0	0	0	0	0	0	0	0	0	0	0	0	0	0	89.99999999963507	0	0	0	0	0	0	89.99999999869995	0	0
0.02	0.1852117899630067	0.1496647032053746	34.58181008848394	0	0.9399999999999999	0	1.203185394702497	-0.5625356268166747	-0.4035070113340814	1.877601334481849	0.03277032532654761	0	0	0	1.203185394702497	-0.5625356268166747	-0.4035070113340814	1.877601334481849	0.03277032532654761	0	0	0	0.5871447759140619	0.4021174267071209	16.88478725342821	4.195819669706181	-1.7015220768112	-1.981256569210713	1.691640553511271	113.5670046508189	0	0	1.622764415108595	-3.33198208808367	-1.075899908899378	1.9656382193396	103.5900202011174	0	0
0.04	0.1849341913651985	0.1751387131420182	34.82192446934444	0	0.9399999999999999	0	3.191329433026294	-1.479538672237605	-1.129044344633701	3.74327937631413	0.06533254993868141	0	0	0	3.191329433026294	-1.479538672237605	-1.129044344633701	3.74327937631413	0.06533254993868141	0	0	0	0.614544057791137	0.3719714892208905	16.61010754444015	4.154521478198871	-1.717645045544055	-1.965425716205405	1.740543006687808	113.6191240988867	0	0	1.595797386721888	-3.336479161678444	-1.122962668087334	2.03014849274979	103.7278664729701	0	0
0.06	0.1811818441667253	0.1601719529372364	34.84586520423715	0	0.9399999999999999	0	3.577041244702518	-1.644538673125182	-1.26644383806347	4.051371384790789	0.07070976988568139	0	0	0	3.577041244702518	-1.644538673125182	-1.26644383806347	4.051371384790789	0.07070976988568139	0	0	0	0.6007620911695768	0.3596191055350998	16.56472137078551	4.182552479309892	-1.717367750029736	-2.02576002894242	1.749725801650846	113.7880118124984	0	0	1.684451836132405	-3.327286461640099	-1.163211971266426	2.022151172937629	103.9420774135527	0	0
0.08	0.203679895792882	0.1671414335454527	34.87636260630951	0	0.9399999999999999	0	4.008699395955242	-1.829187229971797	-1.418809928022328	4.414962326171955	0.07705562894320844	0	0	0	4.008699395955242	-1.829187229971797	-1.418809928022328	4.414962326171955	0.07705562894320844	0	0	0	0.6213074376553428	0.348839910116212	16.49469706494645	4.132061495962998	-1.715143538150272	-2.062364028201853	1.808032506317378	113.8811872219409	0	0	1.64193080479437	-3.367379053105423	-1.204271796870434	2.074315655730549	104.1861913084322	0	0
0.1	0.2639396288494283	0.1983803205688252	34.85193128101986	0	0.9399999999999999	0	4.024971862082941	-1.837479929755668	-1.424339478514247	4.438706182875688	0.0774700374198103	0	0	0	4.024971862082941	-1.837479929755668	-1.424339478514247	4.438706182875688	0.0774700374198103	0	0	0	0.6885727172168021	0.3399271233740542	16.49596933241101	4.000065528899148	-1.67540298967633	-2.099349817027977	1.80680406140146	113.9187561451082	0	0	1.557024909479761	-3.384452126053779	-1.264564404639906	2.064258164777621	104.3666231450553	0	0
0.12	0.2503897951687437	0.1714497204543103	34.79269553048481	0	0.9399999999999999	0	4.037783255597517	-1.844010465114386	-1.42869369568759	4.457382046866941	0.07779599273711231	0	0	0	4.037783255597517	-1.844010465114386	-1.42869369568759	4.457382046866941	0.07779599273711231	0	0	0	0.6620551038276814	0.3253001552780361	16.47641672629787	4.058931330298023	-1.74108324301479	-2.105124864824511	1.867494594650188	114.0113909361505	0	4.127725786176661e-52	1.651933993362236	-3.373377623765617	-1.371765776358088	2.064224807836397	104.4766035503707	0	4.127725786176661e-52
0.14	0.2548426304795935	0.1758268218208709	34.84238316566626	0	0.9399999999999999	0	4.426357129430874	-2.008638746099272	-1.564800718529612	4.791921225340576	0.08363480287839418	0	0	0	4.426357129430874	-2.008638746099272	-1.564800718529612	4.791921225340576	0.08363480287839418	0	0	0	0.6661635081380671	0.3241164284403625	16.43206397223765	4.045118193281663	-1.764226734083583	-2.152918067433662	1.905107255464177	114.0927280495709	0	0	1.684862356244774	-3.353600017217988	-1.341688713652823	2.036656168042825	104.5854005580801	0	0
